<svg width="15" height="15" viewBox="0 0 15 15" fill="none" xmlns="http://www.w3.org/2000/svg">
<g clip-path="url(#clip0)">
<path d="M14.4294 3.46636L7.80565 0.110197L7.80293 0.10882C7.50797 -0.0380159 7.15755 -0.0347346 6.86537 0.117609C6.84237 0.127336 0.574717 3.45388 0.553594 3.46747C0.212109 3.64624 0 3.99657 0 4.38215V10.6189C0 11.0045 0.212109 11.3548 0.553594 11.5336L6.86253 14.882L6.86537 14.8835C7.01437 14.9612 7.17858 15.0001 7.34282 15.0001C7.50059 15.0001 7.65841 14.9642 7.80293 14.8922L14.4294 11.5347C14.7814 11.3586 15 11.005 15 10.6113V4.3898C15 3.99608 14.7814 3.6424 14.4294 3.46636ZM7.27257 0.896144C7.31561 0.874054 7.36702 0.873615 7.41041 0.894914L13.6105 4.03639L11.1974 5.23774L5.13598 2.03011L7.27257 0.896144ZM6.89719 13.9057L0.96416 10.7568L0.961318 10.7553C0.910312 10.7287 0.878584 10.6765 0.878584 10.6189V4.77862L6.89719 7.91702V13.9057ZM7.34112 7.15762L1.35563 4.03648L4.19813 2.52789L10.2296 5.71964L7.34112 7.15762ZM14.1214 10.6113C14.1214 10.67 14.0887 10.7228 14.0361 10.749L7.7758 13.921V7.92268L10.6582 6.48769V7.99223C10.6582 8.23483 10.8549 8.43153 11.0975 8.43153C11.3401 8.43153 11.5368 8.23483 11.5368 7.99223V6.05028L14.1214 4.76357V10.6113Z" fill="white"/>
<path d="M5.31107 8.62529C5.18832 8.41599 4.91914 8.34591 4.70987 8.46867L3.34942 9.26683L3.06374 8.74927C2.9465 8.53687 2.67922 8.4597 2.46685 8.57695C2.25444 8.69419 2.17728 8.96144 2.29452 9.17384L2.79811 10.0862C2.79928 10.0884 2.80063 10.0903 2.80183 10.0924C2.80253 10.0937 2.80309 10.095 2.80382 10.0963C2.80549 10.0991 2.80736 10.1018 2.80909 10.1046C2.8117 10.1089 2.81434 10.1131 2.81709 10.1172C2.81987 10.1214 2.82275 10.1255 2.82565 10.1295C2.82858 10.1336 2.83151 10.1377 2.83455 10.1417C2.83757 10.1456 2.8407 10.1495 2.84381 10.1533C2.84697 10.1571 2.85011 10.1609 2.85336 10.1646C2.85664 10.1684 2.86001 10.1719 2.86341 10.1755C2.86672 10.179 2.87003 10.1826 2.87346 10.186C2.87703 10.1895 2.88072 10.1929 2.88439 10.1963C2.88781 10.1995 2.89121 10.2027 2.8947 10.2057C2.8986 10.2091 2.90264 10.2123 2.90665 10.2156C2.91011 10.2184 2.91354 10.2212 2.91708 10.2239C2.9213 10.2271 2.92561 10.2301 2.92991 10.2331C2.93346 10.2356 2.93694 10.2381 2.94055 10.2405C2.945 10.2434 2.94957 10.2462 2.95414 10.249C2.95775 10.2512 2.96132 10.2534 2.96498 10.2555C2.96967 10.2582 2.97447 10.2606 2.97925 10.2631C2.98291 10.265 2.98654 10.267 2.99026 10.2688C2.99513 10.2712 3.00011 10.2734 3.00506 10.2755C3.00884 10.2772 3.01256 10.279 3.01637 10.2805C3.02129 10.2826 3.02633 10.2843 3.03131 10.2862C3.03526 10.2876 3.03916 10.2891 3.04315 10.2905C3.0481 10.2922 3.05314 10.2936 3.05812 10.295C3.06222 10.2963 3.06629 10.2976 3.07045 10.2987C3.07537 10.3 3.08035 10.301 3.0853 10.3021C3.08961 10.3031 3.09392 10.3042 3.09825 10.3051C3.10297 10.306 3.10775 10.3067 3.11249 10.3075C3.11715 10.3082 3.12175 10.3091 3.12644 10.3097C3.13092 10.3103 3.1354 10.3106 3.13991 10.3111C3.14489 10.3116 3.14987 10.3122 3.15485 10.3125C3.15881 10.3128 3.16277 10.3127 3.16672 10.3129C3.17223 10.3131 3.17771 10.3134 3.18321 10.3134C3.1925 10.3134 3.20179 10.3131 3.21108 10.3125C3.21345 10.3124 3.21582 10.3121 3.21819 10.3118C3.22502 10.3113 3.23185 10.3107 3.23867 10.3099C3.24219 10.3094 3.24568 10.3087 3.24916 10.3082C3.25485 10.3073 3.2605 10.3065 3.26615 10.3054C3.2702 10.3046 3.27424 10.3036 3.27828 10.3027C3.28335 10.3016 3.28842 10.3005 3.29346 10.2992C3.29782 10.298 3.30213 10.2967 3.30647 10.2954C3.31118 10.2941 3.31587 10.2927 3.32056 10.2912C3.32501 10.2897 3.32941 10.288 3.33383 10.2864C3.33837 10.2847 3.34291 10.2831 3.34742 10.2813C3.35185 10.2795 3.35621 10.2775 3.36061 10.2756C3.36506 10.2736 3.36954 10.2716 3.37397 10.2695C3.37824 10.2674 3.38246 10.2652 3.38668 10.263C3.38949 10.2615 3.39236 10.2602 3.39515 10.2586C3.39632 10.258 3.39737 10.2572 3.39858 10.2565C3.40077 10.2553 3.403 10.2542 3.40517 10.2529L5.15463 9.22658C5.36372 9.10373 5.43386 8.83455 5.31107 8.62529Z" fill="white"/>
</g>
<defs>
<clipPath id="clip0">
<rect width="15" height="15" fill="white"/>
</clipPath>
</defs>
</svg>
