<svg width="15" height="15" viewBox="0 0 15 15" fill="none" xmlns="http://www.w3.org/2000/svg">
<path d="M7.75435 14.1405H11.6667C12.7299 14.1405 13.5926 13.2746 13.5926 12.2146V2.78544C13.5926 1.7222 12.7268 0.859508 11.6667 0.859508H7.69069C7.45194 0.859508 7.26093 0.668506 7.26093 0.429754C7.26093 0.191002 7.45194 0 7.69069 0H11.6667C13.2043 0 14.4521 1.25106 14.4521 2.78544V12.2146C14.4521 13.7521 13.2011 15 11.6667 15H7.75435C7.5156 15 7.3246 14.809 7.3246 14.5702C7.3246 14.3315 7.51879 14.1405 7.75435 14.1405Z" fill="white"/>
<path d="M0.674401 7.19771L3.40573 4.46638C3.57444 4.29766 3.84503 4.29766 4.01375 4.46638C4.18247 4.6351 4.18247 4.90569 4.01375 5.07441L2.0146 7.07356H10.7338C10.9726 7.07356 11.1636 7.26456 11.1636 7.50331C11.1636 7.74207 10.9726 7.93307 10.7338 7.93307H2.0146L4.01375 9.93222C4.18247 10.1009 4.18247 10.3715 4.01375 10.5402C3.93098 10.623 3.81956 10.6676 3.71133 10.6676C3.60309 10.6676 3.49168 10.6262 3.40891 10.5402L0.677585 7.80892C0.505683 7.63702 0.505684 7.36325 0.674401 7.19771Z" fill="white"/>
</svg>
