<svg width="15" height="15" viewBox="0 0 15 15" fill="none" xmlns="http://www.w3.org/2000/svg">
<path d="M13.4395 12.3697L12.7696 3.92877C12.7278 3.38496 12.2679 2.95896 11.7225 2.95896H10.3994V2.89948C10.3994 1.30069 9.09872 0 7.49993 0C5.90114 0 4.60045 1.30069 4.60045 2.89948V2.95896H3.27734C2.73192 2.95896 2.27199 3.38493 2.23039 3.92763L1.56031 12.3708C1.50845 13.0468 1.74298 13.7199 2.2037 14.2173C2.66442 14.7147 3.31754 15 3.99555 15H11.0043C11.6823 15 12.3354 14.7147 12.7962 14.2173C13.2569 13.7198 13.4914 13.0468 13.4395 12.3697ZM5.47906 2.89948C5.47906 1.78518 6.38565 0.878613 7.49993 0.878613C8.61421 0.878613 9.5208 1.78521 9.5208 2.89948V2.95896H5.47906V2.89948ZM12.1515 13.6203C11.8522 13.9434 11.4448 14.1214 11.0043 14.1214H3.99558C3.55508 14.1214 3.14767 13.9434 2.84832 13.6203C2.54899 13.2971 2.40268 12.8772 2.43632 12.4392L3.10634 3.99595C3.11313 3.90712 3.18825 3.83757 3.27734 3.83757H4.60045V4.91965C4.60045 5.16226 4.79715 5.35896 5.03975 5.35896C5.28236 5.35896 5.47906 5.16226 5.47906 4.91965V3.83757H9.5208V4.91965C9.5208 5.16226 9.7175 5.35896 9.96011 5.35896C10.2027 5.35896 10.3994 5.16226 10.3994 4.91965V3.83757H11.7225C11.8116 3.83757 11.8867 3.90715 11.8936 3.99712L12.5635 12.438C12.5972 12.8772 12.4509 13.2971 12.1515 13.6203Z" fill="white"/>
<path d="M9.47912 7.44996C9.30762 7.2784 9.02944 7.2784 8.85791 7.44996L6.89631 9.41156L6.14203 8.65728C5.9705 8.48572 5.69232 8.48572 5.52076 8.65728C5.3492 8.82885 5.3492 9.10699 5.52076 9.27855L6.58567 10.3435C6.67146 10.4292 6.7839 10.4722 6.89628 10.4722C7.00866 10.4722 7.12113 10.4293 7.20689 10.3435L9.47909 8.07126C9.65068 7.89967 9.65069 7.62152 9.47912 7.44996Z" fill="white"/>
</svg>
