<svg width="130" height="130" viewBox="0 0 130 130" fill="none" xmlns="http://www.w3.org/2000/svg">
<g clip-path="url(#clip0)">
<path d="M60.3135 81.8654C60.5376 84.0316 62.3664 85.6443 64.4973 85.6443C64.6421 85.6443 64.7881 85.637 64.9352 85.6218C67.2486 85.3826 68.9303 83.3135 68.6911 81.0001L66.7489 62.2078C66.5097 59.8945 64.4394 58.215 62.1272 58.452C59.8138 58.6912 58.1321 60.7603 58.3713 63.0737L60.3135 81.8654Z" fill="#AD976E"/>
<path d="M86.668 85.6218C86.8151 85.6369 86.9611 85.6442 87.106 85.6442C89.2374 85.6442 91.0657 84.0316 91.2897 81.8653L93.2314 63.0731C93.4706 60.7591 91.7889 58.69 89.4755 58.4514C87.1604 58.215 85.0924 59.8944 84.8532 62.2073L82.9116 80.9995C82.6724 83.3134 84.3541 85.3826 86.668 85.6218Z" fill="#AD976E"/>
<path d="M54.0601 103.927C46.8724 103.927 41.0249 109.774 41.0249 116.962C41.0249 124.151 46.8724 130.001 54.0601 130.001C61.2479 130.001 67.0959 124.151 67.0959 116.962C67.0959 109.774 61.2479 103.927 54.0601 103.927ZM54.0601 121.577C51.5165 121.577 49.4474 119.507 49.4474 116.961C49.4474 114.418 51.5165 112.349 54.0601 112.349C56.6037 112.349 58.6734 114.418 58.6734 116.961C58.6734 119.507 56.6037 121.577 54.0601 121.577Z" fill="#AD976E"/>
<path d="M97.5431 103.927C90.3553 103.927 84.5073 109.774 84.5073 116.962C84.5073 124.151 90.3548 130.001 97.5431 130.001C104.731 130.001 110.58 124.151 110.58 116.962C110.58 109.774 104.731 103.927 97.5431 103.927ZM97.5431 121.577C94.9995 121.577 92.9298 119.507 92.9298 116.961C92.9298 114.418 94.9995 112.349 97.5431 112.349C100.087 112.349 102.157 114.418 102.157 116.961C102.157 119.507 100.088 121.577 97.5431 121.577Z" fill="#AD976E"/>
<path d="M122.733 44.4035C121.935 43.372 120.705 42.7678 119.401 42.7678H35.4599L31.9348 29.2127C31.4519 27.3569 29.7764 26.0615 27.8589 26.0615H10.5989C8.27321 26.0615 6.3877 27.947 6.3877 30.2728C6.3877 32.5985 8.27321 34.484 10.5989 34.484H24.6027L28.0992 47.9297C28.1166 48.0049 28.1362 48.0796 28.1576 48.1532L41.1602 98.1524C41.6431 100.008 43.3186 101.304 45.2361 101.304H106.369C108.286 101.304 109.962 100.008 110.445 98.1524L123.477 48.0386C123.805 46.778 123.53 45.4355 122.733 44.4035ZM103.113 92.8822H48.4923L37.6503 51.1909H113.955L103.113 92.8822Z" fill="#AD976E"/>
<path d="M59.2697 29.6757C60.0918 30.4972 61.1693 30.9082 62.2468 30.9082C63.3249 30.9082 64.403 30.4966 65.2255 29.674C66.8696 28.0288 66.8691 25.3622 65.2239 23.7182L51.9798 10.4803C50.3346 8.83619 47.6686 8.83675 46.024 10.4814C44.3799 12.1266 44.3805 14.7931 46.0251 16.4372L59.2697 29.6757Z" fill="#AD976E"/>
<path d="M89.3761 30.9078C90.4542 30.9078 91.5328 30.4962 92.3554 29.6731L105.58 16.4368C107.224 14.7916 107.222 12.1251 105.577 10.4816C103.932 8.83751 101.265 8.8392 99.6218 10.4844L86.3974 23.7206C84.7533 25.3658 84.755 28.0324 86.4002 29.6764C87.2222 30.4973 88.2992 30.9078 89.3761 30.9078Z" fill="#AD976E"/>
<path d="M75.8058 27.1266C75.8064 27.1266 75.8064 27.1266 75.8069 27.1266C78.1321 27.1266 80.0176 25.2416 80.0182 22.9165L80.0227 4.21237C80.0232 1.88664 78.1383 0.000561499 75.8126 0C75.812 0 75.812 0 75.812 0C73.4863 0 71.6008 1.88495 71.6002 4.21012L71.5957 22.9142C71.5951 25.24 73.4801 27.126 75.8058 27.1266Z" fill="#AD976E"/>
</g>
<defs>
<clipPath id="clip0">
<rect width="130" height="130" fill="white"/>
</clipPath>
</defs>
</svg>
