<svg width="15" height="15" viewBox="0 0 15 15" fill="none" xmlns="http://www.w3.org/2000/svg">
<path d="M7.39317 7.22556C8.38583 7.22556 9.24529 6.86953 9.94772 6.1671C10.6499 5.46477 11.0061 4.60544 11.0061 3.61266C11.0061 2.62023 10.65 1.76078 9.94761 1.05823C9.24517 0.356025 8.38572 0 7.39317 0C6.4004 0 5.54106 0.356025 4.83874 1.05835C4.13641 1.76067 3.78027 2.62012 3.78027 3.61266C3.78027 4.60544 4.13641 5.46489 4.83874 6.16721C5.54129 6.86942 6.40074 7.22556 7.39317 7.22556ZM5.46038 1.67988C5.99928 1.14097 6.63146 0.879019 7.39317 0.879019C8.15478 0.879019 8.78707 1.14097 9.32608 1.67988C9.86498 2.21889 10.1271 2.85118 10.1271 3.61266C10.1271 4.37438 9.86498 5.00655 9.32608 5.54557C8.78707 6.08458 8.15478 6.34654 7.39317 6.34654C6.63168 6.34654 5.99951 6.08447 5.46038 5.54557C4.92136 5.00667 4.65929 4.37438 4.65929 3.61266C4.65929 2.85118 4.92136 2.21889 5.46038 1.67988Z" fill="white"/>
<path d="M13.7147 11.5338C13.6945 11.2415 13.6535 10.9227 13.5932 10.586C13.5323 10.2468 13.4539 9.92612 13.3601 9.63304C13.263 9.33011 13.1313 9.03096 12.9682 8.74429C12.7992 8.44675 12.6005 8.18765 12.3776 7.97445C12.1445 7.7514 11.8591 7.57207 11.529 7.44127C11.2001 7.31115 10.8356 7.24523 10.4457 7.24523C10.2926 7.24523 10.1445 7.30806 9.85851 7.49425C9.6825 7.60904 9.47662 7.74179 9.24683 7.88862C9.05033 8.01382 8.78414 8.13112 8.45535 8.23732C8.13457 8.34112 7.80888 8.39376 7.4873 8.39376C7.16595 8.39376 6.84025 8.34112 6.51924 8.23732C6.1908 8.13123 5.92449 8.01393 5.72834 7.88873C5.50072 7.74328 5.29472 7.61053 5.11608 7.49414C4.83032 7.30795 4.68224 7.24512 4.52911 7.24512C4.1391 7.24512 3.77472 7.31115 3.44593 7.44138C3.11611 7.57196 2.83058 7.75129 2.59724 7.97456C2.37431 8.18788 2.17564 8.44686 2.00672 8.74429C1.84387 9.03096 1.71204 9.33 1.61499 9.63315C1.52126 9.92623 1.44287 10.2468 1.38199 10.586C1.32156 10.9222 1.28071 11.2412 1.26045 11.5341C1.24054 11.8206 1.23047 12.1187 1.23047 12.4199C1.23047 13.2029 1.47938 13.8368 1.97021 14.3043C2.45499 14.7656 3.09631 14.9995 3.87646 14.9995H11.0991C11.879 14.9995 12.5203 14.7656 13.0052 14.3043C13.4961 13.8371 13.745 13.203 13.745 12.4198C13.7449 12.1175 13.7347 11.8194 13.7147 11.5338ZM12.3991 13.6674C12.0788 13.9723 11.6535 14.1205 11.0989 14.1205H3.87646C3.32176 14.1205 2.8965 13.9723 2.57629 13.6675C2.26215 13.3685 2.10949 12.9603 2.10949 12.4199C2.10949 12.1388 2.11876 11.8613 2.1373 11.5949C2.15538 11.3335 2.19234 11.0464 2.24716 10.7413C2.30129 10.44 2.37019 10.1572 2.45213 9.90117C2.53075 9.6557 2.63798 9.41262 2.77096 9.17848C2.89787 8.95532 3.0439 8.76386 3.20503 8.60959C3.35575 8.46528 3.54572 8.34718 3.76957 8.2586C3.97659 8.17666 4.20925 8.1318 4.46182 8.12505C4.49261 8.14142 4.54742 8.17266 4.63623 8.23057C4.81693 8.34833 5.02522 8.48268 5.25547 8.62974C5.51502 8.79522 5.84942 8.94468 6.24893 9.07365C6.65737 9.20572 7.07394 9.27278 7.48741 9.27278C7.90089 9.27278 8.31757 9.20572 8.72578 9.07377C9.12563 8.94456 9.45992 8.79522 9.71981 8.62951C9.95544 8.4789 10.1579 8.34844 10.3386 8.23057C10.4274 8.17277 10.4822 8.14142 10.513 8.12505C10.7657 8.1318 10.9983 8.17666 11.2055 8.2586C11.4292 8.34718 11.6192 8.4654 11.7699 8.60959C11.931 8.76375 12.0771 8.95521 12.204 9.17859C12.3371 9.41262 12.4444 9.65581 12.5229 9.90106C12.605 10.1574 12.674 10.4401 12.728 10.7412C12.7827 11.0468 12.8198 11.3341 12.8379 11.595V11.5952C12.8565 11.8606 12.8659 12.138 12.866 12.4199C12.8659 12.9604 12.7132 13.3685 12.3991 13.6674Z" fill="white"/>
</svg>
