<svg width="35" height="35" viewBox="0 0 35 35" fill="none" xmlns="http://www.w3.org/2000/svg">
<g clip-path="url(#clip0)">
<path d="M17.5 34.999C27.165 34.999 35 27.164 35 17.499C35 7.83404 27.165 -0.000976562 17.5 -0.000976562C7.83502 -0.000976562 0 7.83404 0 17.499C0 27.164 7.83502 34.999 17.5 34.999Z" fill="white"/>
<path d="M27.956 18.9077V26.1225H23.773V19.3912C23.773 17.701 23.169 16.5468 21.6545 16.5468C20.4987 16.5468 19.8121 17.3239 19.5089 18.0763C19.3987 18.3452 19.3704 18.7186 19.3704 19.0958V26.1222H15.187C15.187 26.1222 15.2432 14.7216 15.187 13.5414H19.3707V15.3243C19.3622 15.3383 19.3504 15.352 19.3429 15.3654H19.3707V15.3243C19.9266 14.4689 20.918 13.246 23.1406 13.246C25.8927 13.246 27.956 15.0441 27.956 18.9077ZM10.811 7.47705C9.38002 7.47705 8.44385 8.41634 8.44385 9.65044C8.44385 10.8583 9.35288 11.8248 10.7561 11.8248H10.7832C12.2422 11.8248 13.1494 10.8583 13.1494 9.65044C13.1216 8.41634 12.2422 7.47705 10.811 7.47705ZM8.69247 26.1225H12.8742V13.5414H8.69247V26.1225Z" fill="#3A3A3A"/>
</g>
<defs>
<clipPath id="clip0">
<rect width="35" height="35" fill="white"/>
</clipPath>
</defs>
</svg>
