<svg width="85" height="56" viewBox="0 0 85 56" fill="none" xmlns="http://www.w3.org/2000/svg">
<path d="M82.7218 0.5H57.7218C57.3534 0.5 57.0002 0.631696 56.7397 0.866117C56.4792 1.10054 56.3329 1.41848 56.3329 1.75V20.8491L49.1628 23H43.8329C42.7552 23.0021 41.6927 23.2289 40.7288 23.6627C39.7649 24.0965 38.9258 24.7253 38.2773 25.5L35.7773 28.5C35.5767 28.7407 35.4793 29.0385 35.503 29.3386C35.5267 29.6388 35.6699 29.9211 35.9063 30.1339L41.9718 35.5928L37.6098 40.5H30.939C30.2332 38.3744 29.839 36.1749 29.7662 33.9573C29.5716 28.2808 31.4022 23.1702 35.207 18.7675H35.206C35.3965 18.5484 35.4999 18.2782 35.4996 18V11.75C35.4996 11.4185 35.3532 11.1005 35.0928 10.8661C34.8323 10.6317 34.479 10.5 34.1107 10.5H29.944V8H34.1107C34.479 8 34.8323 7.8683 35.0928 7.63388C35.3532 7.39946 35.4996 7.08152 35.4996 6.75V1.75C35.4996 1.41848 35.3532 1.10054 35.0928 0.866117C34.8323 0.631696 34.479 0.5 34.1107 0.5H31.3329C30.2282 0.501117 29.1691 0.896563 28.388 1.59958C27.6069 2.3026 27.1675 3.25578 27.1662 4.25V10.6258C25.5988 10.9157 24.1904 11.6832 23.1784 12.7988C22.1664 13.9144 21.6127 15.3098 21.6107 16.75V18C21.6104 18.1642 21.6463 18.3269 21.7161 18.4786C21.7859 18.6303 21.8884 18.7681 22.0176 18.8841C17.9758 20.6966 12.8857 23.8962 9.64141 29.2808C4.97474 29.6009 0.777344 32.4722 0.777344 35.5C0.777344 35.8315 0.923673 36.1495 1.18414 36.3839C1.44461 36.6183 1.79788 36.75 2.16623 36.75H3.96102C2.7256 37.994 1.81311 39.4698 1.28966 41.0704C0.766206 42.671 0.644896 44.3564 0.934518 46.0044C1.22414 47.6524 1.91744 49.2218 2.9642 50.5989C4.01095 51.976 5.38495 53.1263 6.98665 53.9665C8.58835 54.8067 10.3776 55.3157 12.2249 55.4567C14.0722 55.5977 15.9312 55.3671 17.6672 54.7816C19.4032 54.1961 20.9728 53.2705 22.2622 52.0717C23.5517 50.8728 24.5287 49.4309 25.1225 47.8503C25.3237 47.948 25.5487 47.9995 25.7773 48H57.0437C57.756 49.816 58.9745 51.437 60.5823 52.7078C62.1901 53.9787 64.1335 54.8567 66.2264 55.258C68.3193 55.6592 70.4916 55.5702 72.5353 54.9994C74.579 54.4286 76.4257 53.3952 77.8985 51.9981C79.3714 50.6011 80.4211 48.8871 80.9471 47.0203C81.4731 45.1536 81.4579 43.1965 80.9028 41.3366C80.3477 39.4766 79.2714 37.7761 77.7769 36.3978C76.2825 35.0194 74.4199 34.0094 72.3674 33.4645L74.7963 31.7927L79.2551 34.085C79.4136 34.1686 79.5889 34.2231 79.771 34.2453C79.953 34.2675 80.1381 34.257 80.3156 34.2144C80.4931 34.1718 80.6595 34.0979 80.805 33.997C80.9505 33.8961 81.0724 33.7702 81.1635 33.6267C81.2546 33.4831 81.3132 33.3247 81.3358 33.1606C81.3585 32.9966 81.3447 32.8301 81.2954 32.6708C81.246 32.5116 81.1621 32.3627 81.0483 32.2329C80.9346 32.103 80.7934 31.9948 80.6329 31.9144L76.1204 29.5944L78.2138 23H82.7218C83.0901 23 83.4434 22.8683 83.7039 22.6339C83.9643 22.3995 84.1107 22.0815 84.1107 21.75V1.75C84.1107 1.41848 83.9643 1.10054 83.7039 0.866117C83.4434 0.631696 83.0901 0.5 82.7218 0.5ZM59.1107 13H61.8885V20.5H59.1107V13ZM64.6662 20.5V13H75.7773V20.5H64.6662ZM59.1107 10.5V6.74656C60.311 7.56133 61.7739 8.00141 63.2773 8H77.1662C78.6697 8.00141 80.1326 7.56133 81.3329 6.74656V10.5H59.1107ZM77.1662 5.5H63.2773C62.416 5.49902 61.5761 5.25822 60.8729 4.81062C60.1697 4.36302 59.6376 3.73056 59.3496 3H81.094C80.806 3.73056 80.2739 4.36302 79.5706 4.81062C78.8674 5.25822 78.0275 5.49902 77.1662 5.5ZM43.8329 25.5H49.3885C49.5378 25.5 49.6861 25.4783 49.8277 25.4358L57.9475 23H64.399L50.5102 28H39.6662L40.4996 27C40.8886 26.5352 41.3921 26.1578 41.9704 25.8975C42.5488 25.6373 43.1863 25.5012 43.8329 25.5ZM32.7218 16.75H29.944V13H32.7218V16.75ZM29.944 4.25C29.9444 3.91859 30.0909 3.60087 30.3513 3.36653C30.6116 3.13219 30.9647 3.00037 31.3329 3H32.7218V5.5H29.944V4.25ZM27.1662 13.215V16.75H24.3885C24.3895 15.9748 24.6571 15.2189 25.1544 14.586C25.6518 13.9531 26.3545 13.4742 27.1662 13.215ZM9.87734 31.7733L12.2058 34.25H4.11432C5.13134 33.0548 7.40929 31.9387 9.87734 31.7733ZM13.2773 53C11.1519 52.9998 9.08512 52.3728 7.39323 51.215C5.70135 50.0572 4.47757 48.4323 3.90919 46.5891C3.34081 44.7459 3.45912 42.7859 4.24604 41.0089C5.03295 39.232 6.44511 37.736 8.26641 36.75H14.5563L16.8893 39.2316L15.0727 40.8664C14.1854 40.4849 13.1769 40.3981 12.2254 40.6211C11.2739 40.8441 10.4406 41.3628 9.87289 42.0853C9.30516 42.8078 9.03952 43.6877 9.12293 44.5695C9.20634 45.4512 9.63343 46.278 10.3287 46.9038C11.024 47.5295 11.9427 47.9139 12.9224 47.989C13.9021 48.064 14.8798 47.825 15.6826 47.314C16.4854 46.803 17.0616 46.0531 17.3095 45.1967C17.5573 44.3404 17.4607 43.4327 17.0369 42.6342L18.6898 41.1466L22.8817 45.6053C22.5322 47.6696 21.37 49.5522 19.607 50.9096C17.8439 52.267 15.5975 53.0089 13.2773 53ZM14.6662 44.25C14.6662 44.4972 14.5848 44.7389 14.4322 44.9445C14.2795 45.15 14.0626 45.3102 13.8088 45.4048C13.5551 45.4995 13.2758 45.5242 13.0064 45.476C12.737 45.4277 12.4895 45.3087 12.2953 45.1339C12.101 44.9591 11.9687 44.7363 11.9151 44.4939C11.8616 44.2514 11.8891 44 11.9942 43.7716C12.0993 43.5432 12.2773 43.348 12.5057 43.2107C12.7341 43.0733 13.0026 43 13.2773 43C13.6456 43.0004 13.9986 43.1322 14.259 43.3665C14.5194 43.6009 14.6658 43.9186 14.6662 44.25ZM50.3072 45.5H26.4216L12.1648 30.3361C17.2202 22.1195 27.4365 19.545 28.7221 19.25H31.435C27.5532 24.7295 26.8454 30.2717 26.9935 34.1369C27.1734 38.8325 28.594 42.0784 28.6544 42.2142C28.7575 42.4462 28.9355 42.645 29.1653 42.7851C29.3952 42.9251 29.6664 43 29.944 43H38.2773C38.4856 43 38.6912 42.9579 38.8789 42.8768C39.0667 42.7957 39.2317 42.6776 39.3619 42.5312L44.9174 36.2812C45.131 36.041 45.2386 35.7384 45.2197 35.4312C45.2008 35.124 45.0567 34.8339 44.815 34.6164L40.2416 30.5H50.7773C50.954 30.5 51.1291 30.4697 51.2931 30.4106L70.2218 23.5962V24.25C70.223 25.1449 70.5793 26.01 71.2264 26.6895C71.8736 27.369 72.769 27.8182 73.7515 27.9562L73.1786 29.7586L50.3072 45.5ZM58.5131 43H68.8329C69.2013 43 69.5545 43.1317 69.815 43.3661C70.0755 43.6005 70.2218 43.9185 70.2218 44.25C70.2218 44.5815 70.0755 44.8995 69.815 45.1339C69.5545 45.3683 69.2013 45.5 68.8329 45.5H54.8803L58.5131 43ZM62.1451 40.5L64.3527 38.9806L65.1968 40.5H62.1451ZM78.5551 44.25C78.5546 46.2368 77.803 48.1644 76.4239 49.7158C75.0447 51.2671 73.1201 52.35 70.9664 52.7863C68.8127 53.2227 66.5581 52.9865 64.5734 52.1166C62.5886 51.2468 60.9918 49.795 60.0454 48H68.8329C69.938 48 70.9978 47.6049 71.7792 46.9016C72.5606 46.1984 72.9996 45.2446 72.9996 44.25C72.9996 43.2554 72.5606 42.3016 71.7792 41.5983C70.9978 40.8951 69.938 40.5 68.8329 40.5H68.3023L66.5992 37.4344L69.3871 35.5156C71.8629 35.6491 74.1892 36.6266 75.8924 38.2493C77.5956 39.8719 78.5478 42.0178 78.5551 44.25ZM74.5313 25.5H74.3885C74.0202 25.4996 73.6672 25.3678 73.4068 25.1335C73.1464 24.8991 73 24.5814 72.9996 24.25V23H75.3249L74.5313 25.5ZM78.5551 20.5V13H81.3329V20.5H78.5551Z" fill="white"/>
</svg>
