<svg width="100" height="100" viewBox="0 0 100 100" fill="none" xmlns="http://www.w3.org/2000/svg">
<path d="M17.0237 40.9748L50.0001 51.9059L82.9765 40.9748L50.0001 30.0439L17.0237 40.9748Z" fill="white"/>
<path d="M91.0308 44.4775L54.4719 56.5961L63.4262 70.8197L99.9853 58.701L91.0308 44.4775Z" fill="white"/>
<path d="M47.0704 65.1445L39.087 77.8256L10.6423 68.3967V87.9248L47.0704 100V65.1445Z" fill="white"/>
<path d="M60.9131 77.8256L52.9297 65.1445V100L89.3578 87.9248V68.3967L60.9131 77.8256Z" fill="white"/>
<path d="M36.5739 70.8197L45.5282 56.5961L8.9692 44.4775L0.0147095 58.701L36.5739 70.8197Z" fill="white"/>
<path d="M47.0703 0H52.9297V19.5652H47.0703V0Z" fill="white"/>
<path d="M19.5157 8.95312L24.5899 6.02344L34.3725 22.9669L29.2983 25.8966L19.5157 8.95312Z" fill="white"/>
<path d="M65.6265 22.9688L75.4091 6.02526L80.4833 8.95494L70.7007 25.8984L65.6265 22.9688Z" fill="white"/>
</svg>
