<svg width="100" height="83" viewBox="0 0 100 83" fill="none" xmlns="http://www.w3.org/2000/svg">
<path d="M6.86973 28.826H37.1775V0.4375H0V37.615H6.86973V28.826Z" fill="white"/>
<path d="M44.0472 46.4051C47.2835 46.4051 49.9069 43.7816 49.9069 40.5453C49.9069 37.309 47.2835 34.6855 44.0472 34.6855H12.729V46.4051H44.0472Z" fill="white"/>
<path d="M22.5283 69.8438C22.5283 76.3162 27.7754 81.5633 34.2479 81.5633C40.7203 81.5633 45.9674 76.3162 45.9674 69.8438H22.5283Z" fill="white"/>
<path d="M88.2805 52.2645C88.8477 52.2645 89.4086 52.2926 89.9621 52.3453L85.7352 29.8021H91.5899V23.9428H84.6365L83.5379 18.083H60.598V23.9424H69.6299L75.1893 58.1242H53.7342L50.3293 50.4307C48.5121 51.5895 46.3576 52.2643 44.0473 52.2643H15.7209C14.4512 54.9297 13.7393 57.9102 13.7393 61.0539V63.9836H71.707C74.1258 57.1631 80.6414 52.2645 88.2805 52.2645Z" fill="white"/>
<path d="M99.9404 71.2152C100.73 64.788 96.1599 58.9376 89.7327 58.148C83.3054 57.3583 77.455 61.9285 76.6654 68.3557C75.8757 74.7829 80.4459 80.6333 86.8731 81.4229C93.3003 82.2126 99.1507 77.6424 99.9404 71.2152Z" fill="white"/>
</svg>
