<svg width="80" height="80" viewBox="0 0 80 80" fill="none" xmlns="http://www.w3.org/2000/svg">
<path d="M77.4986 28.6895C77.4888 28.4857 77.4292 28.2874 77.3251 28.1118C77.2211 27.9363 77.0756 27.789 76.9014 27.6826C76.7273 27.5763 76.5297 27.5142 76.326 27.5018C76.1223 27.4894 75.9187 27.527 75.7329 27.6114L62.1798 33.7719C58.2922 34.1091 54.6282 32.8969 50.9107 31.222L52.4362 26.6439C52.5214 26.3884 52.5218 26.1122 52.4373 25.8565C52.3529 25.6008 52.1881 25.3792 51.9675 25.2247C39.29 16.352 29.1745 16.25 28.7501 16.25C28.4877 16.25 28.232 16.3325 28.0192 16.486C27.8063 16.6394 27.6471 16.8559 27.5642 17.1048L24.8117 25.3638C11.5037 29.375 3.16699 38.7683 2.80934 39.1767C2.62619 39.386 2.51806 39.6504 2.50207 39.9281C2.48608 40.2057 2.56314 40.4808 2.72106 40.7097C9.43231 50.4409 17.3807 56.3716 26.3839 58.3844C26.7807 59.9055 28.3423 63.0686 34.4411 66.118C34.7135 66.2542 35.0264 66.2863 35.3209 66.2081C35.6153 66.1299 35.8711 65.9469 36.0401 65.6934L38.5401 61.9434C38.6508 61.7769 38.7199 61.5862 38.7417 61.3874C38.7635 61.1886 38.7373 60.9875 38.6654 60.8009C38.5935 60.6143 38.4779 60.4477 38.3283 60.3149C38.1788 60.1822 37.9996 60.0872 37.8057 60.038C37.0039 59.8086 36.2301 59.4905 35.4987 59.0897C40.7859 58.7681 45.6518 57.2814 49.6193 55.5883L52.774 59.5312C52.9527 59.7546 53.2026 59.9099 53.482 59.9712C53.7614 60.0326 54.0534 59.9962 54.3092 59.8683C54.524 59.7609 59.6178 57.1769 63.5001 52.0003C63.699 51.7351 63.7844 51.4017 63.7376 51.0735C63.6907 50.7453 63.5153 50.4492 63.2501 50.2503L61.3179 48.8011C61.9648 48.3134 62.4659 47.9114 62.8067 47.6292L75.922 51.2059C76.109 51.2568 76.3053 51.2635 76.4953 51.2256C76.6853 51.1876 76.8639 51.1059 77.017 50.9871C77.1701 50.8682 77.2934 50.7153 77.3772 50.5406C77.4611 50.3659 77.5031 50.1741 77.5001 49.9803C77.4412 46.2303 75.8692 42.5897 73.3086 40.1042C77.2979 36.9669 77.6886 32.6148 77.4986 28.6895ZM29.6326 18.8053C32.2232 19.0414 40.2079 20.28 49.767 26.7467L48.6321 30.1519C48.0615 29.8753 47.488 29.5945 46.9117 29.3094C40.9742 26.3858 34.8492 23.3733 27.6848 24.6498L29.6326 18.8053ZM15.8428 50.9086C12.0841 48.233 8.5897 44.6356 5.35949 40.1166C8.31368 37.1626 11.6155 34.5781 15.1925 32.4198C18.3125 34.99 19.8165 39.1808 19.1387 43.5594C18.806 45.6157 18.0581 47.5828 16.9404 49.3406C16.6017 49.8818 16.2353 50.4051 15.8428 50.9086ZM35.5679 61.895L34.5836 63.3706C31.7792 61.827 30.3492 60.3669 29.6317 59.3728C29.5107 59.2053 29.4081 59.0472 29.3178 58.8973C29.3803 58.9053 29.4428 58.9153 29.5061 58.9228C30.1745 59.0035 30.8391 59.0625 31.5 59.0997C32.7345 60.5 34.3654 61.3866 35.5679 61.895ZM54.0617 57.1386L51.9653 54.5181C52.4093 54.3023 52.8393 54.0863 53.2518 53.872C55.2977 52.8078 57.279 51.6239 59.1856 50.3266L60.7222 51.4791C58.8175 53.7082 56.569 55.6188 54.0617 57.1386ZM61.2501 45.6705C58.3904 47.9837 55.3026 49.9997 52.0345 51.6875C46.7167 54.4409 38.5404 57.5 29.7903 56.4391C25.5881 55.9204 21.5466 54.5044 17.9397 52.287C18.2001 51.9452 18.4473 51.5995 18.6812 51.25H26.2501C26.9876 51.2492 27.7086 51.0313 28.3231 50.6235C28.9376 50.2156 29.4184 49.6359 29.7056 48.9566C30.9961 49.1566 32.3001 49.2565 33.6061 49.2553C37.3806 49.2553 42.594 48.4239 47.0503 44.7103C52.5795 40.1028 58.932 40.6223 61.2501 41.0142V45.6705ZM20.1095 48.75C20.6831 47.5533 21.1188 46.2952 21.4082 45H26.2501C26.5815 45.0004 26.8993 45.1322 27.1336 45.3665C27.3679 45.6009 27.4997 45.9186 27.5001 46.25V47.5C27.4997 47.8314 27.3679 48.1491 27.1336 48.3835C26.8993 48.6178 26.5815 48.7496 26.2501 48.75H20.1095ZM61.2501 38.4733C58.2389 38.017 51.5009 37.747 45.45 42.7897C39.8339 47.4698 32.5675 46.8655 30.0001 46.4645V46.25C29.999 45.2558 29.6035 44.3026 28.9005 43.5996C28.1975 42.8966 27.2443 42.5012 26.2501 42.5H21.765C22.0462 38.1014 20.482 33.9592 17.4857 31.1139C20.3706 29.5581 23.4209 28.3311 26.5795 27.4559C33.6009 25.5416 39.53 28.4609 45.8081 31.5523C50.6943 33.9586 55.7356 36.4469 61.2507 36.3263L61.2501 38.4733ZM70.5157 41.0114C72.7946 42.6669 74.3722 45.3708 74.8501 48.3225L63.7501 45.2953V35.805L75.0304 30.6775C74.9468 34.1636 73.9679 36.9275 70.6109 38.9258C70.433 39.0316 70.2842 39.1799 70.1778 39.3574C70.0714 39.535 70.0108 39.7361 70.0013 39.9429C69.9919 40.1496 70.0339 40.3555 70.1236 40.542C70.2133 40.7285 70.348 40.8898 70.5154 41.0114H70.5157Z" fill="white"/>
<path d="M12.5 42.5C13.1904 42.5 13.75 41.9404 13.75 41.25C13.75 40.5596 13.1904 40 12.5 40C11.8096 40 11.25 40.5596 11.25 41.25C11.25 41.9404 11.8096 42.5 12.5 42.5Z" fill="white"/>
</svg>
