<svg width="18" height="18" viewBox="0 0 18 18" fill="none" xmlns="http://www.w3.org/2000/svg">
<path d="M9 0C4.0374 0 0 4.03745 0 9.00006C0 13.9627 4.0374 18 9 18C13.9626 18 18 13.9627 18 9.00006C18 4.03745 13.9626 0 9 0ZM9 16.3636C4.93964 16.3636 1.63636 13.0604 1.63636 9.00006C1.63636 4.93975 4.93964 1.63636 9 1.63636C13.0604 1.63636 16.3636 4.93975 16.3636 9.00006C16.3636 13.0604 13.0603 16.3636 9 16.3636Z" fill="white"/>
<path d="M8.99987 3.81836C8.39845 3.81836 7.90918 4.30796 7.90918 4.90976C7.90918 5.51101 8.39845 6.00018 8.99987 6.00018C9.60129 6.00018 10.0906 5.51101 10.0906 4.90976C10.0906 4.30796 9.60129 3.81836 8.99987 3.81836Z" fill="white"/>
<path d="M9.00007 7.63623C8.54821 7.63623 8.18188 8.00256 8.18188 8.45441V13.3635C8.18188 13.8154 8.54821 14.1817 9.00007 14.1817C9.45192 14.1817 9.81825 13.8154 9.81825 13.3635V8.45441C9.81825 8.00256 9.45192 7.63623 9.00007 7.63623Z" fill="white"/>
</svg>
