<svg width="80" height="72" viewBox="0 0 80 72" fill="none" xmlns="http://www.w3.org/2000/svg">
<path d="M78.4375 16.7293H52.5102L44.8991 9.11012C45.3825 8.27605 45.6597 7.30809 45.6597 6.27637C45.6597 3.15324 43.1208 0.612305 40 0.612305C36.8792 0.612305 34.3403 3.15324 34.3403 6.27637C34.3403 7.30809 34.6173 8.27605 35.1009 9.11012L27.4898 16.7293H1.5625C0.699531 16.7293 0 17.4289 0 18.2918V69.8251C0 70.6879 0.699531 71.3876 1.5625 71.3876H78.4375C79.3003 71.3876 80 70.6879 80 69.8251V18.2918C80 17.4289 79.3003 16.7293 78.4375 16.7293ZM40 3.7373C41.3975 3.7373 42.5347 4.87637 42.5347 6.27637C42.5347 7.67637 41.3977 8.81543 40 8.81543C38.6023 8.81543 37.4653 7.67637 37.4653 6.27637C37.4653 4.87637 38.6025 3.7373 40 3.7373ZM37.3503 11.2803C38.1413 11.7015 39.0433 11.9404 40 11.9404C40.9567 11.9404 41.8587 11.7015 42.6497 11.2803L48.093 16.7293H31.907L37.3503 11.2803ZM76.875 68.2626H3.125V19.8543H24.3681L23.2602 20.9636C22.6505 21.574 22.6509 22.5634 23.2614 23.1734C23.5664 23.4781 23.9661 23.6304 24.3656 23.6304C24.7658 23.6304 25.1659 23.4776 25.4711 23.1721L28.7853 19.8545H51.2145L54.5288 23.1721C54.8339 23.4776 55.2341 23.6304 55.6342 23.6304C56.0339 23.6304 56.4334 23.4781 56.7384 23.1734C57.3489 22.5636 57.3494 21.5742 56.7397 20.9636L55.6317 19.8543H76.875V68.2626Z" fill="white"/>
</svg>
