<svg width="80" height="80" viewBox="0 0 80 80" fill="none" xmlns="http://www.w3.org/2000/svg">
<path d="M58.3874 36.0022L56.2957 37.0491C56.0999 38.5549 55.3633 39.9381 54.2231 40.941C53.0829 41.9438 51.617 42.4979 50.0985 42.5H30.0985C28.4415 42.4981 26.8529 41.8391 25.6812 40.6674C24.5095 39.4957 23.8504 37.907 23.8485 36.25V29.0438C23.4561 28.6916 23.142 28.261 22.9267 27.7797C22.7113 27.2984 22.5995 26.7773 22.5985 26.25V22.5C22.5983 21.367 22.9062 20.2553 23.4892 19.2838L11.5381 4.53703C11.3894 4.35354 11.2957 4.13168 11.2679 3.89714C11.2401 3.6626 11.2793 3.42498 11.381 3.21181C11.4827 2.99864 11.6427 2.81865 11.8425 2.69267C12.0422 2.56669 12.2736 2.49989 12.5098 2.5H18.9456C19.1317 2.5 19.3155 2.54157 19.4835 2.62167C19.6515 2.70177 19.7995 2.81837 19.9167 2.96297L30.6851 16.25H35.422L25.929 4.53703C25.7803 4.35358 25.6867 4.13178 25.6588 3.89729C25.631 3.66281 25.6702 3.42524 25.7718 3.2121C25.8734 2.99895 26.0333 2.81894 26.233 2.69292C26.4327 2.56689 26.664 2.50001 26.9001 2.5H33.336C33.5221 2.50003 33.7059 2.54161 33.8739 2.6217C34.0418 2.7018 34.1898 2.81839 34.307 2.96297L45.0756 16.25H48.1048C50.0702 16.2539 52.0006 16.7708 53.7049 17.7497C55.4092 18.7286 56.8284 20.1355 57.8221 21.8312L60.9904 27.2633C61.4214 28.0014 61.6963 28.82 61.7982 29.6686C61.9001 30.5172 61.8268 31.3777 61.5828 32.1968C61.3388 33.016 60.9294 33.7763 60.3797 34.4309C59.8301 35.0854 59.152 35.6202 58.3874 36.0022ZM59.1868 31.4834C59.4458 30.6274 59.3864 29.7065 59.0196 28.8908L51.4707 33.0075L52.5104 34.827C52.6692 35.1042 52.928 35.3101 53.2338 35.4026C53.5396 35.495 53.8692 35.467 54.1549 35.3242L57.2696 33.7656C57.7296 33.5384 58.1374 33.2183 58.4674 32.8255C58.7974 32.4327 59.0423 31.9757 59.1868 31.4834ZM55.2635 22.4714L48.3943 28.7164C49.0998 29.232 49.6888 29.8903 50.1229 30.6486L50.2303 30.8361L57.7792 26.7194L55.6626 23.0905C55.5382 22.8775 55.4043 22.6719 55.2635 22.4714ZM38.981 18.75L35.9274 22.7188L38.8928 26.3775L45.2487 18.75H38.981ZM41.2112 27.5H44.697C45.0968 27.5004 45.4956 27.5394 45.8879 27.6164L53.5462 20.6539C52.1028 19.508 50.3354 18.8453 48.4945 18.7598L41.2112 27.5ZM26.3485 36.25C26.3497 37.2442 26.7451 38.1974 27.4481 38.9004C28.1511 39.6034 29.1043 39.9989 30.0985 40H50.0985C50.7899 39.9993 51.4677 39.8077 52.0571 39.4462C52.6465 39.0847 53.1245 38.5674 53.4385 37.9514C52.8047 37.9253 52.188 37.7387 51.646 37.4091C51.104 37.0795 50.6546 36.6177 50.3398 36.067L47.952 31.8883C47.6235 31.315 47.1496 30.8385 46.5781 30.507C46.0066 30.1754 45.3577 30.0005 44.697 30H41.8282L42.1299 30.3723C42.7561 31.145 43.0497 32.1348 42.9462 33.124C42.8426 34.1132 42.3503 35.0207 41.5776 35.6469C40.8049 36.2731 39.8151 36.5667 38.8259 36.4631C37.8368 36.3595 36.9293 35.8672 36.3031 35.0945L32.1746 30H26.3485V36.25ZM25.0985 22.5V26.25C25.0988 26.4695 25.1567 26.6851 25.2664 26.8753C25.376 27.0654 25.5337 27.2234 25.7235 27.3336C25.9133 27.4438 26.1291 27.5013 26.3485 27.5H30.1485L25.249 21.4544C25.1498 21.7941 25.0991 22.1461 25.0985 22.5ZM18.3498 5H15.1318L38.2457 33.5206C38.456 33.7735 38.7574 33.9333 39.0846 33.9655C39.4119 33.9977 39.7386 33.8996 39.9941 33.6925C40.2495 33.4854 40.4131 33.186 40.4493 32.8592C40.4855 32.5323 40.3915 32.2044 40.1876 31.9464L18.3498 5ZM34.3093 20.722L35.8268 18.75H32.7112L34.3093 20.722ZM32.7401 5H29.5214L38.639 16.25H41.8578L32.7401 5Z" fill="white"/>
<path d="M3.74999 55H3.7539C3.7539 54.9869 3.75484 54.9728 3.7553 54.9622C3.78655 51.9267 7.55343 49.4498 14.9528 47.6002C21.6594 45.9233 30.5566 45 40.0052 45C49.4538 45 58.3502 45.9233 65.0569 47.6002C72.4567 49.4498 76.2239 51.9267 76.255 54.9622C76.2809 55.4991 76.3267 59.3578 72.6503 63.3281C70.1739 66.002 66.5691 68.1297 61.9355 69.6517C57.9234 70.9697 53.1206 71.8339 47.5984 72.2367V73.75C47.5973 74.7442 47.2018 75.6974 46.4988 76.4004C45.7958 77.1034 44.8426 77.4988 43.8484 77.5H36.3484C35.3542 77.4989 34.401 77.1034 33.698 76.4004C32.995 75.6974 32.5996 74.7442 32.5984 73.75V72.25C26.9978 71.8531 22.132 70.9844 18.075 69.6517C13.4412 68.1297 9.8364 66.002 7.35999 63.3281C3.84827 59.5355 3.7328 55.8472 3.75218 55.0562C3.75187 55.0375 3.74999 55.0189 3.74999 55ZM64.4506 50.0253C57.9364 48.3969 49.2547 47.5 40.0052 47.5C30.7556 47.5 22.0733 48.3969 15.5591 50.0253C8.69186 51.7422 6.25514 53.7783 6.25514 55C6.25514 55.0225 6.25514 55.0406 6.25374 55.0602C6.30811 55.9211 7.53905 57.1605 10.6002 58.4072C11.7048 56.7477 14.6486 55.4131 19.5158 54.3564C25.0292 53.1594 32.3389 52.5 40.0986 52.5C47.8583 52.5 55.168 53.1594 60.6813 54.3564C65.4866 55.3997 68.4172 56.7138 69.5542 58.3441C72.5728 57.0897 73.75 55.8484 73.75 55H73.7552C73.7552 53.7783 71.3184 51.7422 64.4506 50.0253ZM13.1508 59.308C13.8836 59.5338 14.683 59.7569 15.5545 59.9747C22.0687 61.6031 30.75 62.5 40 62.5C49.25 62.5 57.9313 61.6031 64.4455 59.9747C65.3733 59.7427 66.2175 59.5048 66.9886 59.2641C66.065 58.5828 63.9972 57.6345 60.1509 56.7995C54.8067 55.6391 47.6853 55 40.0986 55C32.5119 55 25.3906 55.6391 20.0469 56.7995C16.1161 57.6528 14.0437 58.6239 13.1508 59.308ZM35.0984 73.75C35.0988 74.0814 35.2306 74.3991 35.465 74.6335C35.6993 74.8678 36.017 74.9996 36.3484 75H43.8484C44.1798 74.9996 44.4976 74.8678 44.7319 74.6335C44.9663 74.3991 45.0981 74.0814 45.0984 73.75V72.3852C43.458 72.4613 41.7601 72.4996 40.0047 72.5C38.3162 72.5 36.6808 72.4646 35.0984 72.3939V73.75ZM9.27515 61.7159C15.7231 68.5625 29.5453 70 40.0052 70C58.9559 70 67.1763 65.4952 70.7344 61.7159C71.2712 61.1494 71.7555 60.5355 72.1814 59.8816C70.3897 60.8184 68.0129 61.6579 65.0509 62.3998C58.345 64.0767 49.4481 65 40 65C30.5519 65 21.655 64.0767 14.9483 62.3998C11.9953 61.6617 9.62369 60.8251 7.83359 59.8898C8.25829 60.5406 8.74076 61.1518 9.27515 61.7159Z" fill="white"/>
</svg>
