<svg width="100" height="100" viewBox="0 0 100 100" fill="none" xmlns="http://www.w3.org/2000/svg">
<path d="M26.056 7.97732C29.1884 8.68179 31.4951 9.77891 33.2393 11.0479C40.9057 8.92019 49.7885 8.06362 58.1806 8.887C49.6637 -0.733061 37.8369 -1.90242 25.7159 2.32575C22.7996 3.34302 23.1838 7.3982 26.056 7.97732Z" fill="white"/>
<path d="M13.6178 60.8823C19.4371 55.8036 26.0685 54.6418 33.3279 57.4294C40.0707 60.1022 51.098 63.2589 61.1538 64.8791C60.4287 63.7384 60.4224 63.7312 60.373 63.6459C57.6606 58.9313 51.7121 46.6964 55.045 34.9411C57.0094 28.0136 61.8081 22.4401 69.3083 18.3752C69.3697 18.3408 69.3585 18.347 70.5757 17.681C61.4237 14.2182 51.0246 13.7172 41.4108 15.264C32.7105 16.6558 28.1727 18.8506 23.9113 21.6669C3.19235 35.3437 -2.72925 53.8899 1.08949 69.4571C1.08988 69.4587 1.09046 69.4601 1.09085 69.4616C5.567 87.6907 24.2813 99.1048 25.0758 99.5818C25.5219 99.8497 26.0341 99.9996 26.6079 99.9996C27.4286 99.9996 32.5813 99.826 36.1579 95.6133C39.319 91.89 40.2187 86.3474 38.8313 79.1399C38.4798 77.3121 36.5068 76.2548 34.7732 77.0138C34.7247 77.0349 29.8647 79.1295 23.9381 78.9071C16.8178 78.6391 11.2199 75.2106 7.27858 68.7107C8.29506 66.9435 10.4264 63.6673 13.6178 60.8823Z" fill="white"/>
<path d="M99.962 58.9309C97.3859 42.1453 90.0366 28.3803 77.0965 20.791C70.2714 24.5256 72.6258 23.2383 72.1162 23.5163C66.0468 26.8016 62.1993 31.1833 60.6807 36.5394C57.9682 46.1058 63.0625 56.56 65.419 60.67L68.7055 65.8395C78.4974 66.7324 88.6577 66.1931 97.2408 62.5179C98.2618 62.0805 98.9883 61.8255 99.5381 60.9639C99.9236 60.3592 100.074 59.6381 99.962 58.9309ZM78.1545 43.5724C76.4648 43.5724 75.201 42.2232 75.201 40.6436C75.201 39.0615 76.4672 37.7149 78.1545 37.7149C79.772 37.7149 81.0833 39.0262 81.0833 40.6436C81.0833 42.2611 79.772 43.5724 78.1545 43.5724Z" fill="white"/>
</svg>
