<svg width="20" height="20" viewBox="0 0 20 20" fill="none" xmlns="http://www.w3.org/2000/svg">
<path d="M17.2715 5.66406C17.685 5.66406 17.9716 5.24605 17.8166 4.86273C17.2661 3.50176 15.9309 2.53906 14.3748 2.53906H13.6555C13.3873 1.12215 12.145 0 10.6248 0H9.37484C7.85566 0 6.61253 1.12141 6.34413 2.53906H5.62484C4.06882 2.53906 2.73359 3.50176 2.18308 4.86273C2.02804 5.24605 2.31472 5.66406 2.7282 5.66406H17.2715ZM9.37484 1.17188H10.6248C11.4803 1.17188 12.2065 1.74742 12.4509 2.53906H7.54874C7.7932 1.74742 8.51937 1.17188 9.37484 1.17188Z" fill="#AD976E"/>
<path d="M4.33802 18.367C4.40321 19.2827 5.17341 20 6.09138 20H13.9086C14.8266 20 15.5968 19.2827 15.662 18.367L16.4832 6.83594H3.51685L4.33802 18.367ZM11.6023 9.97074C11.6185 9.64754 11.8941 9.39828 12.2168 9.4148C12.54 9.43098 12.7889 9.70609 12.7727 10.0293L12.4602 16.2793C12.4445 16.5925 12.1856 16.8359 11.8755 16.8359C11.5381 16.8359 11.2731 16.5538 11.2898 16.2207L11.6023 9.97074ZM7.78325 9.4148C8.10602 9.39859 8.38157 9.64758 8.3977 9.97074L8.7102 16.2207C8.72684 16.5539 8.46169 16.8359 8.1245 16.8359C7.81434 16.8359 7.55544 16.5925 7.53977 16.2793L7.22727 10.0293C7.21114 9.70609 7.46005 9.43098 7.78325 9.4148Z" fill="#AD976E"/>
</svg>
